<svg viewBox="0 0 192 192" fill="none" xmlns="http://www.w3.org/2000/svg">
  <g clip-path="url(#a)">
    <path d="M182.222 32.28c-4.36 0-7.885 3.478-7.885 7.771v2.26c-17.984-25.033-47.603-40.306-79.03-40.306C50.53 2.005 10.97 33.047 1.12 75.86a7.574 7.574 0 0 0-.61 2.982c0 4.292 3.547 7.772 7.884 7.772 4.248 0 7.727-3.344 7.885-7.501 4-17.238 13.94-32.895 28.015-44.101A81.314 81.314 0 0 1 67.767 22c8.811-3.118 18.074-4.7 27.54-4.7 9.467 0 18.73 1.582 27.541 4.7a80.771 80.771 0 0 1 23.474 13.013c14.076 11.206 24.039 26.863 28.015 44.101.158 4.157 3.638 7.5 7.885 7.5 4.361 0 7.885-3.479 7.885-7.771v-38.77c0-4.292-3.547-7.794-7.885-7.794Zm0 74.713c-4.247 0-7.727 3.344-7.885 7.501-3.999 17.239-13.939 32.895-28.015 44.101a81.307 81.307 0 0 1-23.474 13.014c-8.811 3.118-18.074 4.699-27.54 4.699-9.467 0-18.73-1.581-27.54-4.699a80.782 80.782 0 0 1-23.475-13.014c-14.075-11.206-24.038-26.862-28.015-44.101-.158-4.157-3.637-7.501-7.885-7.501-4.36 0-7.884 3.48-7.884 7.772v38.792c0 4.293 3.547 7.772 7.884 7.772 4.338 0 7.885-3.479 7.885-7.772v-2.259c17.984 25.055 47.603 40.328 79.03 40.328 44.779 0 84.339-31.043 94.189-73.856.407-.949.61-1.965.61-2.982 0-4.315-3.547-7.795-7.885-7.795Z" fill="#F19938"/>
  </g>
  <path d="M102.077 55.733c18.754 0 30.666 8.138 30.666 20.877 0 8.61-5.543 15.568-14.271 17.927 10.497 2.123 16.984 10.262 16.984 20.877 0 14.153-12.384 22.999-31.845 22.999h-40.81v-82.68h39.276Zm-1.179 32.907c6.015 0 9.671-3.067 9.671-8.256 0-4.954-3.656-7.903-9.671-7.785H84.385v16.04h16.513Zm0 33.025c7.548 0 12.266-3.303 12.266-8.964 0-5.19-4.718-8.492-12.266-8.374H84.385v17.338h16.513Z" fill="#000"/>
  <defs>
    <clipPath id="a">
      <path fill="#fff" d="M0 0h191.632v191.632H0z"/>
    </clipPath>
  </defs>
</svg>
