<svg viewBox="0 0 42 42" fill="none" xmlns="http://www.w3.org/2000/svg">
  <g clip-path="url(#a)">
    <path d="M39.018 6.913c-.934 0-1.689.745-1.689 1.664v.484C33.48 3.7 27.137.43 20.407.43 10.82.43 2.35 7.076.24 16.243c-.087.204-.131.421-.131.64 0 .918.76 1.663 1.688 1.663.91 0 1.655-.716 1.689-1.606.856-3.69 2.984-7.043 5.998-9.443a17.41 17.41 0 0 1 5.027-2.786 17.628 17.628 0 0 1 5.896-1.006c2.027 0 4.01.338 5.898 1.006a17.299 17.299 0 0 1 5.026 2.786c3.014 2.4 5.147 5.752 5.998 9.443.034.89.78 1.606 1.689 1.606.933 0 1.688-.745 1.688-1.664V8.582c0-.92-.76-1.67-1.688-1.67Zm0 15.998c-.91 0-1.655.716-1.689 1.606-.856 3.69-2.984 7.043-5.998 9.443a17.413 17.413 0 0 1-5.026 2.786 17.628 17.628 0 0 1-5.898 1.006c-2.026 0-4.01-.338-5.896-1.006a17.298 17.298 0 0 1-5.027-2.786c-3.014-2.4-5.147-5.752-5.998-9.443a1.684 1.684 0 0 0-1.689-1.606c-.933 0-1.688.745-1.688 1.664v8.306c0 .92.76 1.664 1.688 1.664.93 0 1.689-.745 1.689-1.664v-.484c3.85 5.365 10.192 8.635 16.921 8.635 9.589 0 18.06-6.646 20.168-15.814.087-.203.131-.42.131-.638a1.68 1.68 0 0 0-1.688-1.67Z" fill="#F19938"/>
  </g>
  <path d="M21.643 12.736c4.015 0 6.566 1.743 6.566 4.47 0 1.844-1.187 3.334-3.056 3.839 2.248.454 3.637 2.197 3.637 4.47 0 3.03-2.652 4.925-6.82 4.925h-8.737V12.736h8.41Zm-.253 7.046c1.288 0 2.071-.657 2.071-1.768 0-1.06-.783-1.692-2.07-1.666h-3.537v3.434h3.536Zm0 7.071c1.616 0 2.627-.707 2.627-1.919 0-1.111-1.01-1.818-2.627-1.793h-3.536v3.712h3.536Z" fill="#fff"/>
  <defs>
    <clipPath id="a">
      <path fill="#fff" d="M0 0h41.032v41.032H0z"/>
    </clipPath>
  </defs>
</svg>
